<svg width="35" height="35" viewBox="0 0 35 35" fill="none" xmlns="http://www.w3.org/2000/svg">
<rect width="35" height="35" rx="17.5" fill="#D0DDCD"/>
<path d="M18.8939 20.9755C19.051 21.0476 19.2281 21.0641 19.3958 21.0222C19.5636 20.9803 19.7121 20.8825 19.8168 20.7449L20.0869 20.3911C20.2287 20.2021 20.4125 20.0487 20.6238 19.9431C20.8351 19.8374 21.0681 19.7824 21.3043 19.7824H23.5869C23.9905 19.7824 24.3776 19.9427 24.663 20.2281C24.9484 20.5135 25.1087 20.9006 25.1087 21.3042V23.5868C25.1087 23.9904 24.9484 24.3774 24.663 24.6628C24.3776 24.9482 23.9905 25.1085 23.5869 25.1085C19.9546 25.1085 16.4711 23.6656 13.9027 21.0971C11.3342 18.5287 9.8913 15.0452 9.8913 11.4129C9.8913 11.0093 10.0516 10.6222 10.337 10.3368C10.6224 10.0514 11.0094 9.89111 11.413 9.89111H13.6956C14.0992 9.89111 14.4863 10.0514 14.7717 10.3368C15.0571 10.6222 15.2174 11.0093 15.2174 11.4129V13.6955C15.2174 13.9317 15.1624 14.1647 15.0567 14.376C14.9511 14.5873 14.7977 14.7711 14.6087 14.9129L14.2526 15.1799C14.1129 15.2866 14.0145 15.4383 13.974 15.6093C13.9335 15.7803 13.9534 15.9601 14.0304 16.1181C15.0703 18.2301 16.7805 19.9382 18.8939 20.9755Z" stroke="#15AAB0" stroke-width="1.52174" stroke-linecap="round" stroke-linejoin="round"/>
</svg>
