<svg width="35" height="35" viewBox="0 0 35 35" fill="none" xmlns="http://www.w3.org/2000/svg">
<rect width="35" height="35" rx="17.5" fill="#D0DDCD"/>
<path d="M24.6999 12.6875C24.7178 12.7672 24.7282 12.8497 24.7282 12.9346V22.0654C24.7281 22.6922 24.2134 23.207 23.5866 23.207H11.4128C10.7861 23.2069 10.2722 22.6921 10.2722 22.0654V12.9346C10.2722 12.8499 10.2807 12.7671 10.2985 12.6875L11.2116 13.2578L17.2985 17.0615L17.4997 17.1875L17.7018 17.0615L23.7888 13.2578L24.6999 12.6875ZM23.3854 14.1338L17.4997 17.8115L11.6149 14.1338L11.0329 13.7705V22.4453H23.9675V13.7705L23.3854 14.1338ZM11.4128 11.7939H23.5866C24.0802 11.7939 24.5029 12.113 24.6608 12.5547H10.3386C10.4964 12.113 10.9192 11.7941 11.4128 11.7939Z" fill="white" stroke="#15AAB0" stroke-width="0.76087"/>
</svg>
