<svg width="35" height="35" viewBox="0 0 35 35" fill="none" xmlns="http://www.w3.org/2000/svg">
<rect width="35" height="35" rx="17.5" fill="#D0DDCD"/>
<path d="M17.5 10.2725C20.6377 10.2725 23.207 12.8408 23.207 15.9785C23.207 17.8924 21.9529 19.9903 20.5986 21.6855C19.3661 23.2284 18.1198 24.3557 17.8203 24.6338C17.6978 24.6887 17.5592 24.7285 17.5 24.7285C17.4406 24.7285 17.3013 24.6889 17.1787 24.6338C16.8782 24.3548 15.634 23.2272 14.4023 21.6855C13.048 19.9903 11.7939 17.8924 11.7939 15.9785C11.7939 12.8408 14.3623 10.2725 17.5 10.2725ZM17.5 11.0332C14.779 11.0332 12.5547 13.2576 12.5547 15.9785C12.5547 17.3969 13.3577 18.9448 14.3076 20.2881C15.2682 21.6465 16.4278 22.8638 17.2373 23.6348L17.5 23.8848L17.7627 23.6348C18.5739 22.8621 19.7334 21.6259 20.6933 20.2588C21.6415 18.9084 22.4453 17.3596 22.4453 15.9785C22.4453 13.2576 20.2209 11.0332 17.5 11.0332ZM17.5 13.3154C18.9638 13.3154 20.163 14.5147 20.1631 15.9785C20.1631 17.4423 18.9638 18.6416 17.5 18.6416C16.0362 18.6416 14.8369 17.4423 14.8369 15.9785C14.8369 14.5147 16.0362 13.3155 17.5 13.3154ZM17.5 14.0762C16.4529 14.0762 15.5976 14.9315 15.5976 15.9785C15.5976 17.0256 16.4529 17.8808 17.5 17.8809C18.547 17.8809 19.4023 17.0256 19.4023 15.9785C19.4023 14.9315 18.547 14.0762 17.5 14.0762Z" fill="white" stroke="#15AAB0" stroke-width="0.76087"/>
</svg>
