<svg width="35" height="35" viewBox="0 0 35 35" fill="none" xmlns="http://www.w3.org/2000/svg">
<rect width="35" height="35" rx="17.5" fill="#D0DDCD"/>
<mask id="path-2-inside-1_14_300" fill="white">
<path d="M14.9077 24.5442L14.8993 24.5457L14.8453 24.5723L14.8301 24.5754L14.8195 24.5723L14.7654 24.5457C14.7573 24.5432 14.7512 24.5444 14.7472 24.5495L14.7441 24.5571L14.7312 24.8828L14.735 24.898L14.7426 24.9079L14.8217 24.9642L14.8331 24.9672L14.8423 24.9642L14.9214 24.9079L14.9305 24.8957L14.9336 24.8828L14.9206 24.5579C14.9186 24.5498 14.9143 24.5452 14.9077 24.5442ZM15.1093 24.4582L15.0995 24.4597L14.9587 24.5305L14.9511 24.5381L14.9488 24.5465L14.9625 24.8736L14.9663 24.8828L14.9724 24.8881L15.1253 24.9589C15.135 24.9614 15.1423 24.9594 15.1474 24.9528L15.1504 24.9421L15.1246 24.4749C15.122 24.4658 15.117 24.4602 15.1093 24.4582ZM14.5653 24.4597C14.562 24.4577 14.558 24.457 14.5541 24.4579C14.5503 24.4587 14.547 24.461 14.5448 24.4643L14.5402 24.4749L14.5143 24.9421C14.5149 24.9512 14.5192 24.9573 14.5273 24.9604L14.5387 24.9589L14.6916 24.8881L14.6992 24.882L14.7023 24.8736L14.7152 24.5465L14.7129 24.5373L14.7053 24.5297L14.5653 24.4597Z"/>
</mask>
<path d="M14.9077 24.5442L15.0234 23.7922L14.8972 23.7727L14.7716 23.7956L14.9077 24.5442ZM14.8993 24.5457L14.7632 23.7971L14.6584 23.8162L14.5629 23.8632L14.8993 24.5457ZM14.8453 24.5723L14.9945 25.3184L15.0923 25.2989L15.1817 25.2548L14.8453 24.5723ZM14.8301 24.5754L14.6211 25.307L14.7984 25.3576L14.9793 25.3215L14.8301 24.5754ZM14.8195 24.5723L14.483 25.2548L14.5445 25.2851L14.6104 25.3039L14.8195 24.5723ZM14.7654 24.5457L15.1018 23.8632L15.0488 23.8371L14.9924 23.8195L14.7654 24.5457ZM14.7472 24.5495L14.153 24.0742L14.0826 24.1622L14.0407 24.2669L14.7472 24.5495ZM14.7441 24.5571L14.0377 24.2746L13.9891 24.3961L13.9839 24.5269L14.7441 24.5571ZM14.7312 24.8828L13.9709 24.8526L13.9666 24.9615L13.993 25.0673L14.7312 24.8828ZM14.735 24.898L13.9968 25.0825L14.0353 25.2363L14.1319 25.3619L14.735 24.898ZM14.7426 24.9079L14.1395 25.3718L14.2088 25.4619L14.3015 25.5278L14.7426 24.9079ZM14.8217 24.9642L14.3806 25.5841L14.4927 25.6639L14.6257 25.6994L14.8217 24.9642ZM14.8331 24.9672L14.6371 25.7024L14.8574 25.7611L15.0737 25.6891L14.8331 24.9672ZM14.8423 24.9642L15.0829 25.686L15.1907 25.6501L15.2834 25.5841L14.8423 24.9642ZM14.9214 24.9079L15.3625 25.5278L15.459 25.4592L15.5301 25.3644L14.9214 24.9079ZM14.9305 24.8957L15.5392 25.3522L15.6347 25.2249L15.6712 25.07L14.9305 24.8957ZM14.9336 24.8828L15.6742 25.057L15.698 24.9561L15.6938 24.8525L14.9336 24.8828ZM14.9206 24.5579L15.6809 24.5276L15.6778 24.4493L15.6588 24.3733L14.9206 24.5579ZM15.1093 24.4582L15.3054 23.723L15.1513 23.6819L14.9937 23.7062L15.1093 24.4582ZM15.0995 24.4597L14.9838 23.7077L14.8651 23.726L14.7577 23.7799L15.0995 24.4597ZM14.9587 24.5305L14.6169 23.8507L14.5074 23.9058L14.4207 23.9925L14.9587 24.5305ZM14.9511 24.5381L14.4131 24.0001L14.2702 24.143L14.217 24.3379L14.9511 24.5381ZM14.9488 24.5465L14.2147 24.3463L14.1837 24.4603L14.1886 24.5783L14.9488 24.5465ZM14.9625 24.8736L14.2023 24.9055L14.208 25.041L14.2602 25.1663L14.9625 24.8736ZM14.9663 24.8828L14.264 25.1754L14.3321 25.3388L14.4653 25.4554L14.9663 24.8828ZM14.9724 24.8881L14.4714 25.4607L14.5537 25.5327L14.6529 25.5786L14.9724 24.8881ZM15.1253 24.9589L14.8058 25.6494L14.8668 25.6776L14.9317 25.6947L15.1253 24.9589ZM15.1474 24.9528L15.7505 25.4167L15.8391 25.3015L15.879 25.1618L15.1474 24.9528ZM15.1504 24.9421L15.882 25.1511L15.9172 25.028L15.9101 24.9L15.1504 24.9421ZM15.1246 24.4749L15.8843 24.4329L15.8797 24.3506L15.8577 24.2713L15.1246 24.4749ZM14.5653 24.4597L14.171 25.1104L14.1974 25.1264L14.225 25.1403L14.5653 24.4597ZM14.5448 24.4643L13.912 24.0418L13.873 24.1001L13.8454 24.1645L14.5448 24.4643ZM14.5402 24.4749L13.8409 24.1752L13.7879 24.2987L13.7805 24.4329L14.5402 24.4749ZM14.5143 24.9421L13.7546 24.9L13.7523 24.9422L13.7546 24.9843L14.5143 24.9421ZM14.5273 24.9604L14.2601 25.6728L14.4388 25.7398L14.6279 25.7146L14.5273 24.9604ZM14.5387 24.9589L14.6393 25.713L14.7536 25.6978L14.8582 25.6494L14.5387 24.9589ZM14.6916 24.8881L15.0111 25.5786L15.0949 25.5399L15.1669 25.4823L14.6916 24.8881ZM14.6992 24.882L15.1745 25.4762L15.3413 25.3427L15.4143 25.142L14.6992 24.882ZM14.7023 24.8736L15.4173 25.1336L15.4579 25.0222L15.4626 24.9037L14.7023 24.8736ZM14.7152 24.5465L15.4755 24.5765L15.4798 24.4676L15.4534 24.3619L14.7152 24.5465ZM14.7129 24.5373L15.4511 24.3528L15.4 24.1483L15.2509 23.9993L14.7129 24.5373ZM14.7053 24.5297L15.2433 23.9917L15.156 23.9044L15.0456 23.8492L14.7053 24.5297ZM14.9077 24.5442L14.7716 23.7956L14.7632 23.7971L14.8993 24.5457L15.0355 25.2943L15.0439 25.2928L14.9077 24.5442ZM14.8993 24.5457L14.5629 23.8632L14.5089 23.8899L14.8453 24.5723L15.1817 25.2548L15.2358 25.2282L14.8993 24.5457ZM14.8453 24.5723L14.6961 23.8262L14.6809 23.8293L14.8301 24.5754L14.9793 25.3215L14.9945 25.3184L14.8453 24.5723ZM14.8301 24.5754L15.0391 23.8438L15.0285 23.8407L14.8195 24.5723L14.6104 25.3039L14.6211 25.307L14.8301 24.5754ZM14.8195 24.5723L15.1559 23.8899L15.1018 23.8632L14.7654 24.5457L14.429 25.2282L14.483 25.2548L14.8195 24.5723ZM14.7654 24.5457L14.9924 23.8195C14.9081 23.7931 14.7677 23.7649 14.5996 23.7999C14.4152 23.8383 14.2602 23.9402 14.153 24.0742L14.7472 24.5495L15.3413 25.0248C15.2382 25.1538 15.0883 25.2525 14.9099 25.2896C14.7479 25.3234 14.6147 25.2957 14.5385 25.2719L14.7654 24.5457ZM14.7472 24.5495L14.0407 24.2669L14.0377 24.2746L14.7441 24.5571L15.4506 24.8397L15.4536 24.8321L14.7472 24.5495ZM14.7441 24.5571L13.9839 24.5269L13.9709 24.8526L14.7312 24.8828L15.4915 24.913L15.5044 24.5873L14.7441 24.5571ZM14.7312 24.8828L13.993 25.0673L13.9968 25.0825L14.735 24.898L15.4731 24.7134L15.4693 24.6982L14.7312 24.8828ZM14.735 24.898L14.1319 25.3619L14.1395 25.3718L14.7426 24.9079L15.3457 24.444L15.3381 24.4341L14.735 24.898ZM14.7426 24.9079L14.3015 25.5278L14.3806 25.5841L14.8217 24.9642L15.2629 24.3442L15.1837 24.2879L14.7426 24.9079ZM14.8217 24.9642L14.6257 25.6994L14.6371 25.7024L14.8331 24.9672L15.0292 24.232L15.0178 24.229L14.8217 24.9642ZM14.8331 24.9672L15.0737 25.6891L15.0829 25.686L14.8423 24.9642L14.6017 24.2423L14.5926 24.2454L14.8331 24.9672ZM14.8423 24.9642L15.2834 25.5841L15.3625 25.5278L14.9214 24.9079L14.4803 24.2879L14.4012 24.3442L14.8423 24.9642ZM14.9214 24.9079L15.5301 25.3644L15.5392 25.3522L14.9305 24.8957L14.3218 24.4392L14.3127 24.4514L14.9214 24.9079ZM14.9305 24.8957L15.6712 25.07L15.6742 25.057L14.9336 24.8828L14.1929 24.7085L14.1899 24.7214L14.9305 24.8957ZM14.9336 24.8828L15.6938 24.8525L15.6809 24.5276L14.9206 24.5579L14.1604 24.5881L14.1733 24.913L14.9336 24.8828ZM14.9206 24.5579L15.6588 24.3733C15.6363 24.2833 15.5858 24.1495 15.4691 24.0259C15.3431 23.8926 15.1828 23.8167 15.0234 23.7922L14.9077 24.5442L14.792 25.2962C14.6392 25.2727 14.4843 25.1996 14.3627 25.0708C14.2503 24.9518 14.203 24.8244 14.1825 24.7424L14.9206 24.5579ZM15.1093 24.4582L14.9937 23.7062L14.9838 23.7077L15.0995 24.4597L15.2151 25.2118L15.225 25.2102L15.1093 24.4582ZM15.0995 24.4597L14.7577 23.7799L14.6169 23.8507L14.9587 24.5305L15.3004 25.2103L15.4412 25.1395L15.0995 24.4597ZM14.9587 24.5305L14.4207 23.9925L14.4131 24.0001L14.9511 24.5381L15.4891 25.0761L15.4967 25.0685L14.9587 24.5305ZM14.9511 24.5381L14.217 24.3379L14.2147 24.3463L14.9488 24.5465L15.6829 24.7466L15.6852 24.7383L14.9511 24.5381ZM14.9488 24.5465L14.1886 24.5783L14.2023 24.9055L14.9625 24.8736L15.7227 24.8418L15.709 24.5146L14.9488 24.5465ZM14.9625 24.8736L14.2602 25.1663L14.264 25.1754L14.9663 24.8828L15.6686 24.5901L15.6648 24.581L14.9625 24.8736ZM14.9663 24.8828L14.4653 25.4554L14.4714 25.4607L14.9724 24.8881L15.4734 24.3155L15.4673 24.3101L14.9663 24.8828ZM14.9724 24.8881L14.6529 25.5786L14.8058 25.6494L15.1253 24.9589L15.4448 24.2683L15.2919 24.1976L14.9724 24.8881ZM15.1253 24.9589L14.9317 25.6947C15.0276 25.7199 15.1734 25.7388 15.3404 25.6927C15.518 25.6437 15.6568 25.5384 15.7505 25.4167L15.1474 24.9528L14.5443 24.4889C14.6329 24.3737 14.7655 24.2727 14.9358 24.2258C15.0954 24.1817 15.2326 24.2003 15.319 24.223L15.1253 24.9589ZM15.1474 24.9528L15.879 25.1618L15.882 25.1511L15.1504 24.9421L14.4188 24.7331L14.4158 24.7438L15.1474 24.9528ZM15.1504 24.9421L15.9101 24.9L15.8843 24.4329L15.1246 24.4749L14.3649 24.517L14.3907 24.9842L15.1504 24.9421ZM15.1246 24.4749L15.8577 24.2713C15.8002 24.0644 15.6303 23.8097 15.3054 23.723L15.1093 24.4582L14.9133 25.1934C14.7825 25.1585 14.6562 25.086 14.5559 24.9757C14.4605 24.8708 14.414 24.7599 14.3914 24.6786L15.1246 24.4749ZM14.5653 24.4597L14.9597 23.809C14.7886 23.7053 14.5842 23.6718 14.3891 23.7151L14.5541 24.4579L14.7192 25.2006C14.5318 25.2423 14.3354 25.21 14.171 25.1104L14.5653 24.4597ZM14.5541 24.4579L14.3891 23.7151C14.1939 23.7585 14.023 23.8755 13.912 24.0418L14.5448 24.4643L15.1776 24.8867C15.0709 25.0466 14.9067 25.159 14.7192 25.2006L14.5541 24.4579ZM14.5448 24.4643L13.8454 24.1645L13.8409 24.1752L14.5402 24.4749L15.2396 24.7747L15.2441 24.764L14.5448 24.4643ZM14.5402 24.4749L13.7805 24.4329L13.7546 24.9L14.5143 24.9421L15.274 24.9842L15.2999 24.517L14.5402 24.4749ZM14.5143 24.9421L13.7546 24.9843C13.761 25.0995 13.7952 25.2496 13.8971 25.3933C14.0008 25.5398 14.1372 25.6267 14.2601 25.6728L14.5273 24.9604L14.7944 24.248C14.9092 24.291 15.0394 24.3734 15.1388 24.5137C15.2364 24.6514 15.2682 24.7939 15.274 24.8999L14.5143 24.9421ZM14.5273 24.9604L14.6279 25.7146L14.6393 25.713L14.5387 24.9589L14.4381 24.2047L14.4267 24.2062L14.5273 24.9604ZM14.5387 24.9589L14.8582 25.6494L15.0111 25.5786L14.6916 24.8881L14.3721 24.1976L14.2192 24.2683L14.5387 24.9589ZM14.6916 24.8881L15.1669 25.4823L15.1745 25.4762L14.6992 24.882L14.224 24.2878L14.2163 24.2939L14.6916 24.8881ZM14.6992 24.882L15.4143 25.142L15.4173 25.1336L14.7023 24.8736L13.9872 24.6136L13.9842 24.622L14.6992 24.882ZM14.7023 24.8736L15.4626 24.9037L15.4755 24.5765L14.7152 24.5465L13.9549 24.5164L13.942 24.8436L14.7023 24.8736ZM14.7152 24.5465L15.4534 24.3619L15.4511 24.3528L14.7129 24.5373L13.9748 24.7219L13.9771 24.731L14.7152 24.5465ZM14.7129 24.5373L15.2509 23.9993L15.2433 23.9917L14.7053 24.5297L14.1673 25.0677L14.1749 25.0753L14.7129 24.5373ZM14.7053 24.5297L15.0456 23.8492L14.9056 23.7792L14.5653 24.4597L14.225 25.1403L14.365 25.2103L14.7053 24.5297Z" fill="#15AAB0" mask="url(#path-2-inside-1_14_300)"/>
<path d="M17.4997 9.51123C21.4918 9.51123 24.728 12.7467 24.7282 16.7388C24.7282 20.7309 21.4919 23.9673 17.4997 23.9673C13.5077 23.9671 10.2722 20.7308 10.2722 16.7388C10.2723 12.7468 13.5078 9.51139 17.4997 9.51123ZM17.4997 10.272C15.7845 10.2721 14.1393 10.9527 12.9265 12.1655C11.7137 13.3783 11.033 15.0236 11.0329 16.7388C11.0329 18.4539 11.7138 20.0992 12.9265 21.312C14.1393 22.5248 15.7845 23.2065 17.4997 23.2065C19.215 23.2065 20.8601 22.5249 22.0729 21.312C23.2858 20.0991 23.9675 18.454 23.9675 16.7388C23.9674 15.0236 23.2857 13.3783 22.0729 12.1655C20.8601 10.9528 19.2148 10.272 17.4997 10.272ZM17.4997 12.5542C17.5929 12.5542 17.683 12.589 17.7526 12.6509C17.8211 12.7119 17.865 12.7953 17.8766 12.8862L17.8806 12.9419V16.5815L20.0515 18.7524C20.1195 18.8209 20.1589 18.9128 20.1618 19.0093C20.1647 19.1057 20.1308 19.1995 20.0671 19.272C20.0032 19.3444 19.9141 19.3907 19.8181 19.3999C19.7236 19.4089 19.6292 19.3816 19.5534 19.3247L19.5016 19.2788L17.2311 17.0083C17.1738 16.9509 17.1359 16.8765 17.1237 16.7964L17.1198 16.7271V12.9351C17.1198 12.8342 17.1598 12.7369 17.2311 12.6655C17.3024 12.5944 17.399 12.5543 17.4997 12.5542Z" fill="white" stroke="#15AAB0" stroke-width="0.76087"/>
</svg>
