<svg width="50" height="48" viewBox="0 0 50 48" fill="none" xmlns="http://www.w3.org/2000/svg">
<rect width="49.1049" height="47.1407" rx="9.82099" fill="#D9D9D9"/>
<path d="M29.8818 12.499C29.9603 12.499 30.036 12.5296 30.0917 12.585L31.5751 14.0684H31.5761L35.0253 17.5195L35.0331 17.5273L35.041 17.5342C35.0701 17.5614 35.0931 17.5944 35.1093 17.6309C35.1255 17.6672 35.1349 17.7063 35.1357 17.7461C35.1364 17.786 35.1291 17.8263 35.1142 17.8633C35.0993 17.9002 35.0769 17.9338 35.0488 17.9619C35.0205 17.9901 34.9862 18.0124 34.9492 18.0273C34.9123 18.0422 34.8727 18.0495 34.8329 18.0488C34.7932 18.0481 34.754 18.0395 34.7177 18.0234C34.6813 18.0072 34.6482 17.9833 34.621 17.9541L33.4013 16.7344L32.9814 17.1543L30.9511 19.1826L30.5312 19.6025L30.9511 20.0234L31.7919 20.8643C31.8474 20.92 31.8788 20.9956 31.8788 21.0742C31.8787 21.1526 31.8472 21.2276 31.7919 21.2832L21.9521 31.126C21.6155 31.4626 21.1735 31.6734 20.7001 31.7236C20.2265 31.7738 19.7493 31.6602 19.3495 31.4014L18.9345 31.1328L18.5947 31.4922L18.5663 31.5225L17.332 32.7568C17.2763 32.8124 17.2007 32.8438 17.122 32.8438C17.0629 32.8437 17.0054 32.8263 16.957 32.7939L16.912 32.7568L16.0937 31.9385L13.0204 35.0117L13.0136 35.0195C13 35.0341 12.9848 35.0471 12.9687 35.0586L12.9169 35.0879C12.8805 35.1041 12.8406 35.1126 12.8007 35.1133C12.761 35.1139 12.7214 35.1067 12.6845 35.0918C12.6476 35.0768 12.614 35.0545 12.5859 35.0264C12.5577 34.9982 12.5354 34.9647 12.5204 34.9277C12.5055 34.8908 12.4983 34.8513 12.499 34.8115C12.4997 34.7716 12.5081 34.7318 12.5244 34.6953C12.5406 34.6589 12.5645 34.6258 12.5937 34.5986L12.6015 34.5918L12.6083 34.584L15.2529 31.9375L15.6738 31.5166L15.2519 31.0967L14.8544 30.7002C14.8273 30.6728 14.8057 30.6402 14.791 30.6045C14.7761 30.5686 14.7685 30.5301 14.7685 30.4912C14.7685 30.4522 14.776 30.413 14.791 30.377C14.7984 30.3591 14.8076 30.3422 14.8183 30.3262L14.8554 30.2803L16.0771 29.0586L16.1201 29.0176L16.4804 28.6777L16.2109 28.2627C15.9521 27.863 15.8386 27.3866 15.8886 26.9131C15.9388 26.4395 16.1495 25.9968 16.4863 25.6602L26.3281 15.8193L26.3271 15.8184C26.3827 15.7631 26.4586 15.7325 26.537 15.7324C26.6156 15.7324 26.6913 15.7639 26.747 15.8193H26.748L27.5888 16.6602L28.0097 17.0801L30.8788 14.2109L30.4579 13.791L29.6718 13.0059C29.6443 12.9783 29.6223 12.9452 29.6074 12.9092C29.5925 12.8732 29.5849 12.8348 29.5849 12.7959C29.5849 12.7569 29.5924 12.7177 29.6074 12.6816C29.6223 12.6458 29.6444 12.6134 29.6718 12.5859C29.7275 12.5303 29.8031 12.4991 29.8818 12.499ZM26.1181 16.8711L16.9072 26.0811C16.6289 26.3597 16.4726 26.738 16.4726 27.1318C16.4727 27.5255 16.629 27.9031 16.9072 28.1816L19.4286 30.7051C19.5666 30.8431 19.7308 30.9526 19.9111 31.0273C20.0914 31.1021 20.2852 31.1406 20.4804 31.1406C20.6756 31.1406 20.8694 31.1021 21.0497 31.0273C21.2298 30.9527 21.3933 30.8429 21.5312 30.7051L31.163 21.0732L30.7421 20.6533L29.9072 19.8193H29.9062L29.9003 19.8125L27.8173 17.7295L27.8115 17.7227L27.7919 17.7031L26.9589 16.8711L26.538 16.4512L26.1181 16.8711ZM30.8779 15.0527L28.8505 17.0811L28.4296 17.502L28.8505 17.9219L29.6923 18.7627L30.1132 19.1816L32.9824 16.3125L32.5605 15.8926L31.7177 15.0518L31.2968 14.6328L30.8779 15.0527Z" fill="white" stroke="#15AAB0" stroke-width="1.18894"/>
</svg>
