<svg width="50" height="48" viewBox="0 0 50 48" fill="none" xmlns="http://www.w3.org/2000/svg">
<rect width="49.1049" height="47.1407" rx="9.82099" fill="#D9D9D9"/>
<path d="M24.2861 32.6951C25.3073 32.0964 27.8843 30.5005 30.2294 28.323C30.5948 27.9838 30.9578 27.6238 31.3134 27.2488C30.7662 27.8292 30.1864 28.3852 29.5908 28.907C27.4331 30.7969 25.2338 32.1459 24.2861 32.6951ZM22.7958 32.365C21.2871 31.4442 18.4025 29.5228 16.0966 27.0076V27.0066H16.0976C18.3869 29.5015 21.2942 31.4441 22.7958 32.365ZM19.5634 21.0505L22.2587 25.0925L22.9658 26.1541L23.6738 25.0925L24.415 23.9822L22.9667 26.157L22.9658 26.156L20.2704 22.1121L19.5624 21.0505H19.5634ZM31.6318 26.907C31.6187 26.9215 31.6059 26.9364 31.5927 26.9509C31.6059 26.9365 31.6186 26.9215 31.6318 26.907ZM34.872 20.2986C34.8714 20.3107 34.8697 20.3227 34.8691 20.3347C34.8698 20.3197 34.8713 20.3048 34.872 20.2898V20.2986ZM34.8574 19.5037C34.871 19.6635 34.8786 19.8244 34.8788 19.9861L34.872 19.7009C34.8687 19.635 34.863 19.5693 34.8574 19.5037ZM34.6347 18.3376C34.6726 18.4635 34.7051 18.591 34.7343 18.7195C34.7051 18.591 34.6726 18.4635 34.6347 18.3376ZM13.1542 17.8914C13.1178 17.9841 13.0843 18.078 13.0527 18.1726C13.0843 18.078 13.1178 17.9841 13.1542 17.8914ZM23.1367 16.4441L23.8173 17.3503L24.498 16.4441C24.5057 16.4339 24.5137 16.424 24.5214 16.4138C24.2388 16.7829 24.0002 17.1933 23.8163 17.6423C23.6297 17.1873 23.3879 16.7713 23.0995 16.3982C23.1115 16.4138 23.1248 16.4284 23.1367 16.4441ZM19.8017 14.3757C21.1079 14.6447 22.2195 15.3166 23.0038 16.2781C22.2056 15.3048 21.0822 14.6428 19.8017 14.3757ZM24.7714 16.1121C24.7403 16.147 24.7089 16.1817 24.6786 16.2175C24.7088 16.1817 24.7404 16.1471 24.7714 16.1121ZM27.8271 14.3767C26.6655 14.6197 25.6326 15.1868 24.8554 16.0183C25.6202 15.1963 26.6439 14.6214 27.8271 14.3767ZM16.6962 14.5369C16.6035 14.5676 16.5118 14.6011 16.4208 14.6365C16.5118 14.6011 16.6035 14.5676 16.6962 14.5369ZM30.9374 14.5369C31.0023 14.5584 31.0668 14.5805 31.1308 14.6042C31.0668 14.5805 31.0023 14.5584 30.9374 14.5369ZM19.4042 14.3074C19.5339 14.3254 19.6618 14.3471 19.788 14.3728C19.6616 14.3467 19.5335 14.3257 19.4042 14.3074ZM27.8515 14.3718C27.9761 14.3466 28.1024 14.3252 28.2304 14.3074C28.1028 14.3254 27.9763 14.3462 27.8515 14.3718ZM18.9853 14.2625C19.1054 14.2712 19.2242 14.2834 19.3417 14.2986C19.224 14.2831 19.1051 14.2714 18.9853 14.2625ZM28.289 14.2986C28.4087 14.2831 28.5298 14.2713 28.6523 14.2625C28.5302 14.2715 28.409 14.2828 28.289 14.2986ZM18.499 14.2429C18.6418 14.2429 18.7831 14.2487 18.9228 14.2576C18.7827 14.2485 18.6414 14.2429 18.499 14.2429ZM23.29 32.6619C23.1629 32.5875 23.0162 32.4992 22.8515 32.3992C23.0168 32.5001 23.164 32.5877 23.29 32.6619Z" fill="white" stroke="#15AAB0" stroke-width="1.70184"/>
</svg>
