<svg width="50" height="48" viewBox="0 0 50 48" fill="none" xmlns="http://www.w3.org/2000/svg">
<rect width="49.1049" height="47.1407" rx="9.82099" fill="#D9D9D9"/>
<path d="M20.5253 11.7238C20.7966 11.7275 21.0593 11.8192 21.2744 11.9845C21.4894 12.1499 21.6455 12.3804 21.7187 12.6417L26.581 29.9288L26.6357 30.1232L26.706 29.9337L29.2587 23.129C29.3486 22.8894 29.5094 22.683 29.7197 22.5372C29.93 22.3915 30.1796 22.3127 30.4355 22.3126H34.4062C34.7397 22.3126 35.06 22.445 35.2958 22.6808C35.5317 22.9166 35.664 23.2369 35.664 23.5704C35.664 23.9037 35.5314 24.2233 35.2958 24.4591C35.06 24.6949 34.7397 24.8282 34.4062 24.8282H31.3066L31.291 24.8712L27.6415 34.6007C27.5485 34.8489 27.3791 35.0618 27.1581 35.2081C26.9372 35.3544 26.6758 35.4273 26.4111 35.4161C26.1462 35.405 25.8914 35.3101 25.6835 35.1456C25.4758 34.9812 25.3256 34.7552 25.2538 34.5001L20.5058 17.6144L20.4453 17.3995L20.3788 17.6124L18.3984 23.9454C18.3185 24.2011 18.159 24.4244 17.9433 24.5831C17.7276 24.7418 17.4669 24.828 17.1992 24.8282H13.2275C12.8941 24.8281 12.5745 24.6948 12.3388 24.4591C12.1031 24.2233 11.9706 23.9038 11.9706 23.5704C11.9706 23.2369 12.103 22.9166 12.3388 22.6808C12.5745 22.4452 12.8943 22.3127 13.2275 22.3126H16.2744L16.289 22.2667L19.3066 12.6066H19.3076C19.3884 12.3474 19.5505 12.1211 19.7704 11.962C19.9898 11.8035 20.2547 11.7199 20.5253 11.7238Z" fill="#15AAB0" stroke="#15AAB0" stroke-width="0.132365"/>
</svg>
