<svg width="50" height="48" viewBox="0 0 50 48" fill="none" xmlns="http://www.w3.org/2000/svg">
<rect width="49.1049" height="47.1407" rx="9.82099" fill="#D9D9D9"/>
<path fill-rule="evenodd" clip-rule="evenodd" d="M24.6095 34.5313L24.5978 34.5334L24.5226 34.5704L24.5015 34.5747L24.4866 34.5704L24.4115 34.5334C24.4002 34.5298 24.3917 34.5316 24.386 34.5387L24.3818 34.5493L24.3638 35.0025L24.3691 35.0236L24.3797 35.0374L24.4898 35.1158L24.5057 35.12L24.5184 35.1158L24.6285 35.0374L24.6412 35.0205L24.6455 35.0025L24.6275 34.5503C24.6247 34.539 24.6187 34.5327 24.6095 34.5313ZM24.8901 34.4116L24.8763 34.4137L24.6804 34.5122L24.6698 34.5228L24.6667 34.5344L24.6857 34.9898L24.691 35.0025L24.6995 35.0099L24.9123 35.1084C24.9257 35.1119 24.936 35.1091 24.943 35.0999L24.9473 35.0851L24.9113 34.4349C24.9077 34.4222 24.9007 34.4144 24.8901 34.4116ZM24.133 34.4137C24.1283 34.4109 24.1227 34.41 24.1174 34.4111C24.1121 34.4123 24.1074 34.4155 24.1044 34.4201L24.098 34.4349L24.062 35.0851C24.0627 35.0978 24.0687 35.1062 24.08 35.1105L24.0959 35.1084L24.3087 35.0099L24.3193 35.0014L24.3236 34.9898L24.3416 34.5344L24.3384 34.5217L24.3278 34.5111L24.133 34.4137Z" fill="#15AAB0"/>
<path fill-rule="evenodd" clip-rule="evenodd" d="M27.1581 24.7278C28.5225 24.7279 29.8342 25.2547 30.8197 26.1983C31.8051 27.1419 32.3882 28.4296 32.4475 29.7927L32.4528 30.0224V32.1403C32.4525 32.4102 32.3491 32.6698 32.1638 32.866C31.9786 33.0623 31.7253 33.1804 31.4559 33.1962C31.1865 33.212 30.9212 33.1244 30.7142 32.9511C30.5072 32.7779 30.3742 32.5322 30.3423 32.2642L30.3349 32.1403V30.0224C30.335 29.2121 30.0254 28.4324 29.4695 27.8429C28.9136 27.2533 28.1534 26.8985 27.3445 26.851L27.1581 26.8457H18.6868C17.8765 26.8456 17.0968 27.1552 16.5072 27.7111C15.9177 28.267 15.5628 29.0272 15.5153 29.8361L15.51 30.0224V32.1403C15.5097 32.4102 15.4063 32.6698 15.2211 32.866C15.0358 33.0623 14.7826 33.1804 14.5131 33.1962C14.2437 33.212 13.9784 33.1244 13.7714 32.9511C13.5645 32.7779 13.4314 32.5322 13.3996 32.2642L13.3922 32.1403V30.0224C13.3922 28.6581 13.919 27.3464 14.8626 26.3609C15.8063 25.3755 17.0939 24.7923 18.457 24.7331L18.6868 24.7278H27.1581ZM33.5117 23.6689C33.7925 23.6689 34.0619 23.7805 34.2605 23.9791C34.459 24.1776 34.5706 24.447 34.5706 24.7278C34.5706 25.0087 34.459 25.278 34.2605 25.4766C34.0619 25.6752 33.7925 25.7867 33.5117 25.7867H32.4528C32.1719 25.7867 31.9026 25.6752 31.704 25.4766C31.5054 25.278 31.3938 25.0087 31.3938 24.7278C31.3938 24.447 31.5054 24.1776 31.704 23.9791C31.9026 23.7805 32.1719 23.6689 32.4528 23.6689H33.5117ZM22.9225 12.0208C24.3267 12.0208 25.6734 12.5786 26.6663 13.5715C27.6592 14.5644 28.2171 15.9111 28.2171 17.3154C28.2171 18.7196 27.6592 20.0663 26.6663 21.0592C25.6734 22.0522 24.3267 22.61 22.9225 22.61C21.5182 22.61 20.1715 22.0522 19.1786 21.0592C18.1857 20.0663 17.6278 18.7196 17.6278 17.3154C17.6278 15.9111 18.1857 14.5644 19.1786 13.5715C20.1715 12.5786 21.5182 12.0208 22.9225 12.0208ZM33.5117 20.4921C33.7925 20.4921 34.0619 20.6037 34.2605 20.8023C34.459 21.0009 34.5706 21.2702 34.5706 21.5511C34.5706 21.8319 34.459 22.1012 34.2605 22.2998C34.0619 22.4984 33.7925 22.61 33.5117 22.61H31.3938C31.113 22.61 30.8436 22.4984 30.6451 22.2998C30.4465 22.1012 30.3349 21.8319 30.3349 21.5511C30.3349 21.2702 30.4465 21.0009 30.6451 20.8023C30.8436 20.6037 31.113 20.4921 31.3938 20.4921H33.5117ZM22.9225 14.1386C22.5053 14.1386 22.0922 14.2208 21.7068 14.3804C21.3213 14.5401 20.9711 14.7741 20.6761 15.0691C20.3811 15.364 20.1472 15.7142 19.9875 16.0997C19.8279 16.4851 19.7457 16.8982 19.7457 17.3154C19.7457 17.7325 19.8279 18.1456 19.9875 18.5311C20.1472 18.9165 20.3811 19.2667 20.6761 19.5617C20.9711 19.8567 21.3213 20.0907 21.7068 20.2503C22.0922 20.41 22.5053 20.4921 22.9225 20.4921C23.765 20.4921 24.573 20.1574 25.1688 19.5617C25.7645 18.9659 26.0992 18.1579 26.0992 17.3154C26.0992 16.4728 25.7645 15.6648 25.1688 15.0691C24.573 14.4733 23.765 14.1386 22.9225 14.1386ZM33.5117 17.3154C33.7816 17.3157 34.0412 17.419 34.2374 17.6043C34.4337 17.7896 34.5518 18.0428 34.5676 18.3122C34.5834 18.5817 34.4958 18.847 34.3225 19.0539C34.1493 19.2609 33.9036 19.3939 33.6356 19.4258L33.5117 19.4332H30.3349C30.065 19.4329 29.8054 19.3296 29.6092 19.1443C29.4129 18.959 29.2948 18.7058 29.279 18.4363C29.2632 18.1669 29.3508 17.9016 29.5241 17.6946C29.6973 17.4877 29.943 17.3547 30.211 17.3228L30.3349 17.3154H33.5117Z" fill="#15AAB0"/>
</svg>
