<svg width="50" height="48" viewBox="0 0 50 48" fill="none" xmlns="http://www.w3.org/2000/svg">
<rect width="49.1049" height="47.1407" rx="9.82099" fill="#D9D9D9"/>
<path d="M23.8214 32.4208C23.8236 33.1147 23.6069 33.7917 23.2022 34.3554C22.7975 34.9191 22.2253 35.3409 21.5672 35.5608C20.909 35.7807 20.1982 35.7875 19.5359 35.5802C18.8737 35.3729 18.2936 34.9622 17.8782 34.4063H17.865C17.3551 34.4123 16.851 34.299 16.3928 34.0753C15.9347 33.8515 15.5352 33.5237 15.2265 33.1179C14.9177 32.7122 14.7082 32.2398 14.6148 31.7386C14.5213 31.2374 14.5464 30.7212 14.6882 30.2315C13.9856 30.0144 13.3576 29.6053 12.8752 29.0502C12.3928 28.4952 12.0752 27.8163 11.9582 27.0903C11.8412 26.3643 11.9294 25.62 12.213 24.9415C12.4966 24.263 12.9642 23.6773 13.5631 23.2505C13.2083 22.5224 13.1364 21.6884 13.3613 20.9102C13.5863 20.1321 14.0922 19.4651 14.7809 19.0387C14.6035 18.5866 14.5288 18.1007 14.5621 17.6162C14.5955 17.1317 14.736 16.6607 14.9736 16.2371C15.2113 15.8136 15.54 15.4481 15.9361 15.1671C16.3322 14.8861 16.7858 14.6967 17.264 14.6124C17.3538 14.1283 17.5504 13.6703 17.8396 13.2718C18.1288 12.8733 18.5033 12.5444 18.9358 12.309C19.3682 12.0737 19.8478 11.9378 20.3394 11.9112C20.831 11.8847 21.3224 11.9682 21.7777 12.1557C22.3826 12.406 22.8997 12.8301 23.2634 13.3744C23.6272 13.9187 23.8214 14.5586 23.8214 15.2133M23.8214 32.4208V15.2133M23.8214 32.4208C23.8193 33.1147 24.036 33.7917 24.4407 34.3554C24.8454 34.9191 25.4175 35.3409 26.0757 35.5608C26.7338 35.7807 27.4446 35.7875 28.1069 35.5802C28.7691 35.3729 29.3492 34.9622 29.7646 34.4063H29.7778C30.288 34.413 30.7926 34.3001 31.2513 34.0766C31.71 33.8532 32.1099 33.5254 32.4191 33.1196C32.7283 32.7137 32.9382 32.2411 33.0319 31.7396C33.1255 31.2381 33.1004 30.7216 32.9586 30.2315C33.6609 30.014 34.2885 29.6044 34.7705 29.0492C35.2524 28.4939 35.5696 27.815 35.6862 27.089C35.8028 26.3631 35.7142 25.619 35.4303 24.9407C35.1464 24.2625 34.6786 23.677 34.0797 23.2505C34.4345 22.5222 34.5061 21.6881 34.2809 20.9099C34.0557 20.1318 33.5496 19.4649 32.8606 19.0387C33.038 18.5867 33.1127 18.1009 33.0795 17.6165C33.0462 17.1321 32.9058 16.6611 32.6683 16.2376C32.4308 15.814 32.1023 15.4485 31.7063 15.1675C31.3104 14.8864 30.8569 14.6968 30.3788 14.6124C30.2385 13.8528 29.837 13.1663 29.2437 12.6717C28.6505 12.1771 27.9029 11.9055 27.1305 11.9042C26.2529 11.9042 25.4112 12.2528 24.7906 12.8734C24.17 13.494 23.8214 14.3357 23.8214 15.2133M13.2322 21.8316C13.2322 21.2845 13.3678 20.746 13.6268 20.2643C13.8859 19.7825 14.2604 19.3724 14.7167 19.0708C15.1731 18.7692 15.6971 18.5854 16.2419 18.5359C16.7867 18.4864 17.3353 18.5727 17.8385 18.7872M17.4679 30.1057C16.5692 30.4992 15.5566 30.5461 14.6253 30.2373C13.6941 29.9285 12.9102 29.2859 12.4246 28.4334C11.9391 27.5808 11.7863 26.5787 11.9958 25.6203C12.2053 24.6618 12.7622 23.8148 13.5591 23.2426M34.4106 21.8316C34.4107 21.2844 34.2752 20.7457 34.016 20.2637C33.7569 19.7818 33.3823 19.3716 32.9257 19.07C32.4692 18.7683 31.9449 18.5846 31.4 18.5352C30.855 18.4859 30.3063 18.5724 29.803 18.7872M30.1736 30.1057C31.0725 30.5003 32.0856 30.5479 33.0175 30.2395C33.9494 29.931 34.7341 29.2883 35.22 28.4354C35.7059 27.5824 35.8587 26.5797 35.6489 25.6208C35.439 24.6619 34.8814 23.8146 34.0837 23.2426" stroke="#15AAB0" stroke-width="1.32365" stroke-linecap="round" stroke-linejoin="round"/>
</svg>
